<svg height="111" viewBox="0 0 115 111" width="115" xmlns="http://www.w3.org/2000/svg"><g fill="none" fill-rule="evenodd"><path d="M68.44 35.238H43.906c-.797 0-1.443-.79-1.443-1.762s.646-1.762 1.443-1.762H68.44c.798 0 1.445.79 1.445 1.762 0 .973-.647 1.762-1.444 1.762" fill="#263357"/><path d="M80.5 14.658V39.21c0 .238-.058.47-.168.664a1.46 1.46 0 0 1-1.294.78c-.805 0-1.463-.65-1.463-1.444V16.103H11.77V98.42h13.162c.804 0 1.462.65 1.462 1.445s-.658 1.445-1.462 1.445H10.308c-.804 0-1.462-.65-1.462-1.445V14.658c0-.794.658-1.444 1.462-1.444h68.73c.804 0 1.462.65 1.462 1.444" fill="#263357"/><path d="M33.32 38.336v1.454c0 1.21-.995 2.202-2.21 2.202h-7.373a2.213 2.213 0 0 1-2.21-2.202v-7.342c0-1.21.994-2.202 2.21-2.202h7.372c.382 0 .758.103 1.075.28l1.82-2.174a.5.5 0 0 1 .09-.088 5.11 5.11 0 0 0-2.986-.954h-7.373c-2.845 0-5.16 2.305-5.16 5.138v7.342c0 2.833 2.315 5.14 5.16 5.14h7.372c2.844 0 5.16-2.307 5.16-5.14v-4.978z" fill="#61c4f2"/><path d="M29.546 40.524c-.374 0-.735-.15-1-.42l-4.247-4.294a1.443 1.443 0 0 1 0-2.025c.552-.56 1.448-.56 2 0l3.15 3.186 6.085-7.384a1.407 1.407 0 0 1 1.994-.183c.6.506.68 1.41.18 2.017l-7.076 8.59a1.41 1.41 0 0 1-1.024.512c-.02.002-.044.002-.064.002" fill="#263357"/><path d="M61.923 18.5h-30.96v-7.635c0-2.108 1.76-3.817 3.93-3.817h23.1c2.17 0 3.93 1.71 3.93 3.817z" fill="#61c4f2"/><path d="M32.115 16.562h27.77v-6.108c0-1.295-1.093-2.35-2.436-2.35h-22.9c-1.34 0-2.435 1.055-2.435 2.35zm29.23 2.82h-30.69c-.808 0-1.463-.633-1.463-1.41v-7.518c0-2.85 2.405-5.168 5.36-5.168h22.897c2.953 0 5.358 2.318 5.358 5.168v7.517c0 .78-.655 1.41-1.462 1.41z" fill="#263357"/><path d="M51.55 10.57H40.45c-1.333 0-2.414-1.094-2.414-2.445V4.21c0-1.353 1.08-2.448 2.414-2.448H51.55c1.332 0 2.412 1.095 2.412 2.447v3.915c0 1.35-1.08 2.446-2.413 2.446" fill="#61c4f2"/><path d="M40.08 2.863a.954.954 0 0 0-.953.954v3.818c0 .526.427.954.953.954h10.955a.955.955 0 0 0 .953-.955V3.817a.955.955 0 0 0-.953-.954zm10.955 8.59H40.08c-2.102 0-3.81-1.713-3.81-3.818V3.817A3.818 3.818 0 0 1 40.08 0h10.955a3.82 3.82 0 0 1 3.81 3.817v3.818a3.82 3.82 0 0 1-3.81 3.817zM93.77 109.238c0 .973-.793 1.762-1.77 1.762s-1.77-.79-1.77-1.762.793-1.762 1.77-1.762 1.77.79 1.77 1.762" fill="#263357"/><path d="M91.115 107.868c-.758 0-1.376.614-1.376 1.37a1.375 1.375 0 0 0 2.752 0c0-.756-.618-1.37-1.377-1.37m0 3.132c-.975 0-1.77-.79-1.77-1.762s.795-1.762 1.77-1.762 1.77.79 1.77 1.762S92.09 111 91.115 111" fill="#263357"/><path d="M55.73 75.355c0 1.782.684 3.443 1.952 4.688 2.488 2.514 6.854 2.514 9.367 0A6.597 6.597 0 0 0 69 75.355a6.64 6.64 0 0 0-1.95-4.687 6.63 6.63 0 0 0-4.684-1.954c-1.78 0-3.44.71-4.684 1.954a6.54 6.54 0 0 0-1.95 4.687" fill="#f86464"/><path d="M50.84 75.75c0-3.182 1.24-6.16 3.498-8.408 2.257-2.272 5.274-3.51 8.47-3.51a11.8 11.8 0 0 1 8.444 3.51 11.697 11.697 0 0 1 3.525 8.407c0 3.18-1.243 6.184-3.525 8.43a11.878 11.878 0 0 1-8.444 3.485 11.938 11.938 0 0 1-8.47-3.484 11.832 11.832 0 0 1-3.5-8.43m-3.042 14.944c4.006 4.014 9.33 6.21 15.012 6.21 5.68 0 11.005-2.196 15.012-6.21 8.29-8.23 8.29-21.635 0-29.89-4.007-3.99-9.332-6.185-15.012-6.185s-11.006 2.195-15.012 6.184c-8.292 8.255-8.292 21.66 0 29.89" fill="#f86464"/><path d="M44.286 57.352c4.946-4.923 11.532-7.636 18.522-7.636 6.99 0 13.55 2.713 18.496 7.636 10.22 10.146 10.22 26.673 0 36.845-4.945 4.923-11.506 7.636-18.496 7.636-6.99 0-13.576-2.713-18.522-7.636-10.195-10.172-10.195-26.7 0-36.845m-6.51 43.325C44.462 107.333 53.344 111 62.808 111c9.462 0 18.344-3.667 25.032-10.323 13.803-13.738 13.803-36.092 0-49.83-6.688-6.656-15.57-10.323-25.032-10.323-9.464 0-18.346 3.667-25.032 10.323-13.804 13.738-13.804 36.092 0 49.83" fill="#f86464"/><path d="M92.204 46.69l13.065-13.088-1.09-9.816-13.065 13.088z" fill="#61c4f2"/><path d="M92 45.606l13.143-13.01L115 33.68l-13.143 13.01z" fill="#61c4f2"/><g fill="#263357"><path d="M63.394 76.643c-.377 0-.753-.143-1.04-.43a1.46 1.46 0 0 1 0-2.07l42.174-42a1.475 1.475 0 0 1 2.08 0 1.46 1.46 0 0 1 0 2.07l-42.175 42c-.287.287-.663.43-1.04.43M94.347 107.476c-.375 0-.748-.14-1.034-.417a1.4 1.4 0 0 1 0-2.017c8.107-7.9 12.57-18.42 12.57-29.618 0-.787.655-1.425 1.463-1.425.807 0 1.462.638 1.462 1.425 0 11.96-4.768 23.195-13.428 31.634-.286.277-.66.416-1.033.416M1.77 80.167c-.977 0-1.77-.642-1.77-1.432V35.79c0-.792.793-1.433 1.77-1.433s1.768.64 1.768 1.432v42.945c0 .79-.792 1.432-1.77 1.432M3.538 32.595c0 .973-.792 1.762-1.77 1.762S0 33.567 0 32.595s.793-1.762 1.77-1.762 1.768.79 1.768 1.762"/><path d="M1.77 31.225c-.76 0-1.377.615-1.377 1.37s.617 1.37 1.376 1.37 1.375-.614 1.375-1.37-.617-1.37-1.376-1.37m0 3.132c-.976 0-1.77-.79-1.77-1.762s.794-1.762 1.77-1.762c.974 0 1.768.79 1.768 1.762s-.794 1.762-1.77 1.762"/></g><path d="M30.855 49.333h-7.27c-2.766 0-5.008 2.3-5.008 5.14v7.34c0 2.84 2.242 5.14 5.007 5.14h1.142c.713 0 1.374-.5 1.488-1.222.145-.92-.543-1.714-1.41-1.714h-.02.002-1.202c-1.18 0-2.146-.99-2.146-2.203v-7.34c0-1.212.966-2.203 2.146-2.203h9.147V51.258c0-1.063-.84-1.925-1.875-1.925" fill="#61c4f2"/><path d="M28.792 57.606L26.18 55l-.005.006a1.334 1.334 0 0 0-1.89.012 1.328 1.328 0 0 0 0 1.9l2.613 2.607.003-.008c.53.52 1.37.518 1.892-.01a1.328 1.328 0 0 0 0-1.9" fill="#263357"/></g></svg>