<svg height="111" viewBox="0 0 101 111" width="101" xmlns="http://www.w3.org/2000/svg"><mask id="a" fill="#fff"><path d="M.584.4H38.69v47.76H.583z" fill="none"/></mask><mask id="b" fill="#fff"><path d="M97.854 0v2.795H.276V0z" fill="none"/></mask><g fill="none" fill-rule="evenodd"><path d="M13.063 89.665l32.45-30.392 10.455 6.533.937-1.432c-1.667-7.576-7.285-13.624-14.56-15.372-5.98 4.557-13.885 4.686-20.034 0-5.89 1.416-10.755 5.648-13.083 11.23-1.767 4.233-2.393 16.552 3.836 29.433" fill="#f86464"/><path d="M78.135 60.526l-14.187 15.95-1.26-.878v30.927h15.447zM41.622 68.648l-15.447 14.84v23.037h15.447zM23.366 86.203l-15.448 14.84v5.482h15.448zM59.88 73.54l-13.16-9.205-2.29 2.194v39.995h15.45zM80.944 58.047v48.478h15.448V57.752l-8.336-6.007z" fill="#61c4f2"/><path d="M70.206 73.662c0 2.828-2.303 5.12-5.144 5.12-2.84 0-5.144-2.292-5.144-5.12 0-2.828 2.303-5.12 5.144-5.12 2.84 0 5.144 2.292 5.144 5.12M53.63 32.05c9.01-10.528 9.273-10.408 8.554-11.017l-6.17-5.23a2.31 2.31 0 0 1-.706-2.483 2.325 2.325 0 0 1 2.034-1.6l25.115-1.998a3.237 3.237 0 0 1 3.48 2.95l1.177 14.645c.148 1.835-2.65 2.073-2.8.222l-1.176-14.645c-.057-.69.672-.477-24.428 1.52l5.295 4.49a3.452 3.452 0 0 1 .392 4.875l-8.63 10.082c-1.202 1.406-3.343-.405-2.138-1.813" fill="#f86464"/><g fill="#263357"><path d="M5.872 26.4c.764 0 1.387-.58 1.452-1.323.19-2.14.815-4.266 1.9-6.23 6.317 5.586 11.574 5.762 16.76 6.265 2.494.242 6.264.607 6.98 1.044a1.46 1.46 0 0 0 2.07-.496c.23-.403.46-.845.687-1.313.083.366.122 1.062-.18 2.315-.577 2.385-2.25 1.74-2.6 3.8-1.817 10.346-8.016 14.795-13.282 14.795-6.397 0-11.98-6.21-13.273-14.765a2.903 2.903 0 0 0-.074-.287c-.546-1.923-1.965-1.18-2.536-3.543-.49-2.03-.086-2.617-.106-2.64.005 0 .018.004.025.006.73 1.573 1.215 2.373 2.18 2.373M24.285 4.375c5.38 2.094 9.138 6.013 10.057 10.485.534 2.598.036 5.043-.74 7.042-.24.253-.367.58-.386.914-.05.107-.096.22-.146.324-1.173-.303-2.83-.513-4.97-.734l-5.123-7.788a1.462 1.462 0 0 0-2.02-.42 1.448 1.448 0 0 0-.42 2.01l3.834 5.828c-2.556-.264-8.444-.408-14.39-6.482a1.464 1.464 0 0 0-2.24.182 18.685 18.685 0 0 0-2.312 4.467C2.452 8.366 13.78.29 24.286 4.373M3.526 31.068C5.08 40.98 11.847 48.16 19.66 48.16c7.813 0 14.578-7.182 16.13-17.095.703-.55 1.966-1.16 2.586-3.725.546-2.26.577-4.967-1.517-5.953.604-2.103.872-4.53.342-7.11-1.118-5.44-5.55-10.152-11.853-12.605C12.55-3.305-1.24 6.955 2.702 21.292c-2.905 1.047-2.996 6.77.825 9.775" mask="url(#a)" transform="translate(12.64 .3)"/><path d="M2.84 70.32c0-9.07 1.315-16.098 9.42-22.2 1.484-1.117-.22-3.344-1.694-2.23a27.277 27.277 0 0 0-8.764 11.282C.342 60.675-.142 66.918.035 70.452c.013.33.15 3.335.87 7.443a1.403 1.403 0 0 0 1.626 1.138c2.12-.37.582-2.45.31-8.713M25.72 30.94h3.422c1.926 0 1.93-2.903 0-2.903H25.72c-.805 0-1.458.65-1.458 1.45 0 .802.653 1.452 1.457 1.452M36.477 30.94H39.9c1.926 0 1.928-2.903 0-2.903h-3.423c-.804 0-1.457.65-1.457 1.45 0 .802.653 1.452 1.457 1.452M27.553 40.907c2.964 2.234 6.408 2.322 9.488 0 1.536-1.157-.222-3.472-1.76-2.314-1.977 1.49-3.99 1.49-5.966 0-1.535-1.158-3.298 1.155-1.76 2.314M65.062 77.384c-2.063 0-3.74-1.67-3.74-3.722S63 69.94 65.062 69.94s3.74 1.67 3.74 3.722-1.678 3.722-3.74 3.722M66.12 53.4l8.53-9.743a3.32 3.32 0 0 0-.377-4.69L69.476 34.9l22.546-1.794 1.802 22.438-4.797-4.066a3.355 3.355 0 0 0-4.707.37L69.544 68.922c-3.245-3.04-8.46-2.038-10.378 1.92l-11.912-8.38a1.412 1.412 0 0 0-1.786.135L7.436 99.17c-1.34 1.29.62 3.293 1.952 2.01l37.195-35.767 11.938 8.4c.082 3.524 2.982 6.367 6.542 6.367 4.564 0 7.765-4.57 6.106-8.85 15.938-18.42 15.378-18.287 16.038-17.724l5.778 4.898c1.537 1.304 3.906.106 3.742-1.904l-1.912-23.798a2.72 2.72 0 0 0-2.935-2.49l-23.914 1.904c-2.014.162-2.833 2.674-1.292 3.98l5.777 4.898a.53.53 0 0 1 .072.74l-8.52 9.73c-.508.582-.447 1.465.138 1.972.584.508 1.47.447 1.98-.135M18.578 65.297c-.21.273-5.115 6.782-.13 16.2.86 1.622 3.35.333 2.485-1.304-4.11-7.763-.3-12.965-.126-13.193 1.123-1.465-1.097-3.164-2.23-1.703"/><path d="M35.216 53.594a17.857 17.857 0 0 0 6.406-2.5v5.862zm-11.85-2.183c1.972 1.158 4.086 1.92 6.268 2.256l-6.268 3.29zm19.164-3.766a1.416 1.416 0 0 0-1.184.25c-5.472 4.168-12.562 4.308-18.218 0a1.414 1.414 0 0 0-1.183-.25c-6.267 1.506-11.514 6.01-14.034 12.05-2.278 5.464-1.578 19.39 3.237 29.23.805 1.65 3.34.446 2.524-1.223-4.473-9.145-5.1-22.29-3.164-26.933 1.895-4.543 5.57-8.073 10.05-9.767 0 12.48-1.494 11.374 10.534 5.063v14.122c0 1.847 2.808 1.85 2.808 0V56.063c8.81 4.622 8.56 4.607 9.13 4.607a1.4 1.4 0 0 0 1.403-1.397v-8.065c5.536 2.3 9.742 7.407 10.8 13.408.325 1.83 3.087 1.33 2.767-.483-1.343-7.61-7.065-13.98-14.4-16.19a29.016 29.016 0 0 0-1.067-.3z"/><path d="M96.462 0H1.668c-1.855 0-1.858 2.795 0 2.795h94.794c1.856 0 1.858-2.795 0-2.795" mask="url(#b)" transform="translate(2.81 107.923)"/><path d="M4.433 82.452c-1.912-.478-2.635 2.397-.728 2.874 1.908.48 2.638-2.394.728-2.874M63.195 56.803c.48-1.9-2.406-2.626-2.887-.724-.48 1.898 2.406 2.624 2.887.723"/></g></g></svg>