<svg height="114" viewBox="0 0 116 114" width="116" xmlns="http://www.w3.org/2000/svg"><g fill="none" fill-rule="evenodd"><path d="M30.582 73.448c-.838 1.462-.293 9.9-1.425 11.722-.8 1.29-7.01 11.286-7.332 11.802-.007.014-.014.02-.014.02l-2.613 2.145 5.972 1.93c.15-.553.328-1.09.52-1.55.145-.33.33-.702.553-1.118 1.81-3.393 5.98-9.158 7.132-11.674.143-.294.235-.552.28-.74.492-2.1.4-16.346.887-17.96 1.654-5.512 1.597-9.004.76-11.163-.08 4.67-1.354 10.72-4.72 16.585M94.085 96.993s-.007-.007-.014-.02c-.32-.517-6.53-10.512-7.33-11.803-1.133-1.82-.588-10.26-1.426-11.722-3.366-5.866-4.64-11.916-4.72-16.585-.837 2.16-.894 5.65.76 11.164.487 1.614.395 15.86.888 17.96.044.187.136.445.28.74 1.152 2.515 5.32 8.28 7.13 11.672.223.415.41.787.552 1.117.194.46.373.997.523 1.55l5.972-1.93z" fill="#f86464"/><path d="M42.432 59.087v.004c0-.002.002-.003 0-.003M68.696 49.78a11.41 11.41 0 0 0-3.265-1.434c-2.218 1.62-4.595 2.466-6.916 2.466h-.257c-2.364.058-4.826-.788-7.132-2.495h-.015c-1.03.273-2.205.703-3.35 1.463-4.02 2.562-5.053 6.855-5.327 9.308.007.003 0 .013 0 .013 3.937 4.33 9.608 7.04 15.896 7.04 6.2 0 11.8-2.636 15.71-6.867-.245-2.438-1.233-6.854-5.344-9.493" fill="#61c4f2"/><g fill="#263357"><path d="M94.31 96.972l-2.956.955c-.88-1.688-2.327-3.92-3.73-6.09-1.426-2.2-2.9-4.473-3.466-5.713a2.568 2.568 0 0 1-.194-.473c-.207-.896-.315-5.298-.408-8.84-.136-5.707-.23-8.295-.494-9.2-.945-3.14-1.282-5.47-1.282-7.197 0-2.488.695-3.736 1.275-4.338.91-.946 2.213-1.032 3.058-.81 2.527.652 3.064 3.463 3.645 8.01.278 2.17.558 4.415 1.31 6.308.25.632 1.76 2.546 3.042 3.344.252.41.7.683 1.215.683.79 0 1.432-.642 1.432-1.434v-23.32c.21.195.42.39.64.6 4.798 4.504 12.832 12.04 14.193 15.61.136.38.25.74.257.753.63 2.114.244 4.545-.522 9.384-.28 1.742-.76 4.36-1.26 7.134-.674 3.693-1.368 7.5-1.648 9.58l-.06.504-.1.033zm-8.186 2.645a1.434 1.434 0 0 0-.916 1.807l1.568 4.868H29.12l1.567-4.868a1.433 1.433 0 0 0-.915-1.807l-2.378-.767-.08-.026c.816-1.503 2.104-3.483 3.365-5.423 1.545-2.394 3.013-4.652 3.644-6.036.18-.366.314-.724.393-1.054.258-1.11.358-4.302.48-9.428.085-3.255.193-7.708.386-8.453 2.062-6.9 1.84-11.724-.68-14.34-1.762-1.844-4.167-2.03-5.83-1.607-4.602 1.19-5.225 6.094-5.777 10.425-.25 1.98-.51 4.03-1.103 5.55V45.32c0-.11-.024-.217-.048-.322V9.628h71.748V44.63c-.114.21-.19.442-.19.69v23.137c-.595-1.52-.852-3.57-1.103-5.55-.55-4.33-1.174-9.234-5.78-10.424-1.66-.423-4.066-.237-5.827 1.606-2.52 2.616-2.743 7.44-.68 14.34.193.744.3 5.197.386 8.452.12 5.126.22 8.317.48 9.428.078.33.214.688.393 1.054.63 1.384 2.1 3.642 3.644 6.037 1.26 1.94 2.548 3.92 3.366 5.424l-.08.026zM7.64 92.455l-.1-.033-.062-.505c-.278-2.08-.974-5.886-1.646-9.58-.502-2.774-.982-5.39-1.26-7.133-.767-4.84-1.154-7.27-.524-9.385.007-.015.122-.374.26-.754 1.36-3.57 9.393-11.106 14.19-15.61.27-.255.53-.498.783-.735v23.456a1.43 1.43 0 0 0 2.728.6c1.23-.864 2.586-2.597 2.82-3.193.753-1.893 1.03-4.137 1.31-6.31.58-4.545 1.117-7.356 3.646-8.008.844-.222 2.148-.136 3.057.81.58.602 1.276 1.85 1.276 4.338 0 1.728-.337 4.058-1.283 7.198-.264.905-.358 3.493-.494 9.2-.094 3.542-.2 7.944-.408 8.84-.022.087-.08.244-.194.474-.566 1.24-2.04 3.513-3.466 5.714-1.403 2.17-2.848 4.4-3.73 6.09l-2.956-.956zm108.186 5.284l-1.818-5.637a1.438 1.438 0 0 0-1.805-.925l-.823.27c.323-2.117.914-5.405 1.5-8.594.508-2.79.994-5.427 1.273-7.198.83-5.27 1.253-7.923.43-10.67 0-.013-.144-.465-.323-.938-1.467-3.872-7.89-10.102-14.9-16.684-1-.94-1.89-1.778-2.603-2.464V8.194c0-.792-.64-1.434-1.432-1.434H20.713c-.79 0-1.432.642-1.432 1.434v36.568c-.734.71-1.673 1.594-2.743 2.602-7.01 6.582-13.434 12.812-14.902 16.684-.18.473-.322.925-.322.94-.823 2.745-.4 5.398.43 10.668.28 1.77.766 4.41 1.274 7.198.584 3.19 1.175 6.477 1.5 8.593l-.824-.27a1.438 1.438 0 0 0-1.804.926L.07 97.74a1.427 1.427 0 0 0 .924 1.798 1.428 1.428 0 0 0 1.804-.917l1.375-4.265.565.184-.002.03 2.785.903c.003-.01.004-.02.005-.03l.092.03 11.342 3.664 4.524 1.463-.01.028 1.362.438 1.36.444.01-.028.086.028 1.23.395-3.12 9.68a1.434 1.434 0 1 0 2.727.888l1.066-3.313H87.7l1.067 3.313c.2.602.758.99 1.368.99.143 0 .293-.022.436-.072a1.434 1.434 0 0 0 .924-1.806l-3.12-9.68 1.23-.394.087-.028.01.028 1.36-.444 1.36-.438-.008-.028 4.525-1.463 11.342-3.664.09-.03.005.03 2.785-.903c0-.01 0-.02-.002-.03l.565-.185 1.375 4.266a1.43 1.43 0 0 0 1.805.918 1.427 1.427 0 0 0 .923-1.8z"/><path d="M22.443 103.81a2.018 2.018 0 0 0-2.755.76c-.55.97-.213 2.206.758 2.758a2.02 2.02 0 0 0 2.754-.76 2.024 2.024 0 0 0-.757-2.757M93.453 103.81a2.024 2.024 0 0 0-.757 2.76 2.02 2.02 0 0 0 2.754.758 2.024 2.024 0 0 0 .758-2.758 2.018 2.018 0 0 0-2.755-.76M45.058 87.65h11.457a1.434 1.434 0 0 0 0-2.867H45.058a1.434 1.434 0 0 0 0 2.868M69.404 87.65a1.434 1.434 0 0 0 0-2.867H60.81a1.434 1.434 0 0 0 0 2.868zM70.836 77.613H45.058a1.434 1.434 0 0 0 0 2.868h25.778a1.434 1.434 0 0 0 0-2.867M70.836 91.953H45.058a1.434 1.434 0 0 0 0 2.868h25.778a1.434 1.434 0 0 0 0-2.867M68.115 62v-5.12c0-.793-.64-1.435-1.432-1.435-.79 0-1.432.642-1.432 1.434v6.49a19.96 19.96 0 0 1-7.16 1.337 19.99 19.99 0 0 1-7.16-1.335V56.88c0-.793-.64-1.435-1.432-1.435-.79 0-1.432.642-1.432 1.434v5.125a20.057 20.057 0 0 1-4.364-3.39c.387-2.515 1.52-5.668 4.61-7.64a9.238 9.238 0 0 1 2.308-1.09c2.38 1.607 4.913 2.424 7.398 2.36h.26c2.41 0 4.874-.802 7.167-2.328.81.27 1.56.627 2.24 1.07 3.13 2.01 4.25 5.226 4.613 7.784A19.873 19.873 0 0 1 68.115 62m1.123-13.423a12.783 12.783 0 0 0-3.634-1.606c-.13-.037-.268-.058-.41-.058h-.006c-.314 0-.607.105-.843.28-1.962 1.43-4.06 2.186-6.068 2.186h-.293c-2.037.053-4.22-.715-6.246-2.214a1.456 1.456 0 0 0-.86-.28h-.011c-.133 0-.263.02-.385.053-1.423.38-2.65.917-3.73 1.633-4.51 2.877-5.682 7.708-5.98 10.348a1.726 1.726 0 0 0 3.45-.086 1.726 1.726 0 0 0-3.458.324 1.418 1.418 0 0 0 .352.888v.002l.02.02a22.974 22.974 0 0 0 16.955 7.51c6.348 0 12.457-2.67 16.76-7.33.28-.3.416-.707.376-1.116-.267-2.677-1.402-7.61-5.988-10.553"/><path d="M50.374 29.165c.204-.7.733-2.022 1.967-3.037 1.878-1.543 4.394-1.562 5.475-1.57l.098-.002h.4c1.075.01 3.59.03 5.468 1.572 1.235 1.016 1.762 2.338 1.967 3.037l.048.177a4.21 4.21 0 0 0-1.044-.573c-1.45-.544-2.67-.148-3.847.235-.764.248-1.556.506-2.536.56-.207.01-.41.01-.617 0-.98-.054-1.773-.312-2.538-.56-.764-.248-1.544-.502-2.393-.502a4.09 4.09 0 0 0-1.452.266c-.37.138-.72.328-1.044.57.014-.058.03-.116.048-.175m16.093 7.548a2.924 2.924 0 0 1-.848 1.32 1.43 1.43 0 0 0-.444.728c-.25 1.005-.937 2.918-2.712 4.444-1.457 1.243-2.964 1.89-4.29 1.873h-.217c-1.33.03-2.843-.63-4.303-1.876-1.774-1.524-2.46-3.436-2.71-4.44a1.443 1.443 0 0 0-.442-.73c-.23-.2-.643-.638-.857-1.347-.152-.468-.218-1.137-.152-1.424.018-.006.034-.013.053-.018.07-.02.14-.037.207-.066a1.353 1.353 0 0 0 .388-.253 1.397 1.397 0 0 0 .257-.302c.057-.09.103-.184.138-.285.006-.02.02-.036.027-.056.464-1.558 1.108-2.56 1.812-2.825.488-.183.98-.04 1.956.278.853.276 1.913.62 3.268.695.154.008.305.013.456.014h.007c.15-.002.31-.006.466-.014 1.354-.074 2.414-.42 3.266-.695.976-.317 1.467-.46 1.958-.278.695.26 1.333 1.264 1.797 2.823.148.495.553.85 1.04.968l.042.014c.064.288-.004.96-.163 1.453m-19.554.832a5.808 5.808 0 0 0 1.363 2.32c.408 1.402 1.36 3.663 3.523 5.522 2.025 1.73 4.208 2.623 6.295 2.557.06.002.122.002.184.002 1.99 0 4.077-.882 6.053-2.57 2.15-1.847 3.103-4.11 3.51-5.51a5.744 5.744 0 0 0 1.356-2.29c.104-.324.925-3.028-.58-4.432.268-1.178.435-2.887-.123-4.785-.297-1.017-1.068-2.944-2.898-4.45-2.66-2.184-6.004-2.21-7.256-2.22l-.135-.002H57.785c-1.26.01-4.602.038-7.262 2.223-1.828 1.504-2.6 3.43-2.9 4.447-.557 1.905-.383 3.648-.13 4.8-1.486 1.427-.677 4.095-.58 4.388M80.86 3.226c.89 0 1.612-.724 1.612-1.613 0-.89-.723-1.613-1.61-1.613S79.25.724 79.25 1.613c0 .89.723 1.613 1.61 1.613M39.33 3.047h37.235a1.434 1.434 0 0 0 0-2.868H39.33a1.434 1.434 0 0 0 0 2.867"/></g></g></svg>